<svg xmlns="http://www.w3.org/2000/svg" viewBox="0 0 1440 760" role="img" aria-labelledby="title desc">
  <title id="title">ArVisual Smart Color Enhancer control overview</title>
  <desc id="desc">A branded illustration of the ArVisual OBS filter controls and scene-adaptive color processing.</desc>
  <defs>
    <linearGradient id="bg" x1="0" y1="0" x2="1440" y2="760" gradientUnits="userSpaceOnUse">
      <stop stop-color="#07101f"/>
      <stop offset="0.52" stop-color="#10152b"/>
      <stop offset="1" stop-color="#1e1233"/>
    </linearGradient>
    <linearGradient id="accent" x1="340" y1="90" x2="1100" y2="650" gradientUnits="userSpaceOnUse">
      <stop stop-color="#53dcff"/>
      <stop offset="0.45" stop-color="#7477ff"/>
      <stop offset="0.72" stop-color="#c15aff"/>
      <stop offset="1" stop-color="#ff647f"/>
    </linearGradient>
    <linearGradient id="scene" x1="224" y1="170" x2="750" y2="600" gradientUnits="userSpaceOnUse">
      <stop stop-color="#f6d660"/>
      <stop offset="0.28" stop-color="#ff7659"/>
      <stop offset="0.55" stop-color="#71d7bf"/>
      <stop offset="0.78" stop-color="#5f8cff"/>
      <stop offset="1" stop-color="#9b63ee"/>
    </linearGradient>
    <filter id="shadow" x="-20%" y="-20%" width="140%" height="140%">
      <feDropShadow dx="0" dy="22" stdDeviation="26" flood-color="#000" flood-opacity=".38"/>
    </filter>
    <filter id="glow" x="-50%" y="-50%" width="200%" height="200%">
      <feGaussianBlur stdDeviation="26"/>
    </filter>
  </defs>

  <rect width="1440" height="760" rx="34" fill="url(#bg)"/>
  <circle cx="260" cy="90" r="170" fill="#2fe6ff" opacity=".12" filter="url(#glow)"/>
  <circle cx="1180" cy="650" r="220" fill="#d85eff" opacity=".12" filter="url(#glow)"/>

  <g filter="url(#shadow)">
    <rect x="118" y="86" width="1204" height="588" rx="26" fill="#0d1424" stroke="#ffffff" stroke-opacity=".12"/>
    <rect x="118" y="86" width="1204" height="62" rx="26" fill="#131b2d"/>
    <path d="M118 122h1204v26H118z" fill="#131b2d"/>
    <circle cx="154" cy="117" r="7" fill="#ff6b7d"/>
    <circle cx="178" cy="117" r="7" fill="#ffc95f"/>
    <circle cx="202" cy="117" r="7" fill="#5fe19b"/>
    <text x="239" y="124" fill="#f6f8ff" font-size="20" font-family="Segoe UI, Arial, sans-serif" font-weight="600">ArVisual — Smart Color Enhancer</text>
    <text x="1254" y="124" fill="#98a4bd" font-size="15" font-family="Segoe UI, Arial, sans-serif" text-anchor="end">OBS source filter</text>
  </g>

  <g>
    <rect x="154" y="180" width="676" height="454" rx="20" fill="#090f1c" stroke="#ffffff" stroke-opacity=".08"/>
    <rect x="176" y="202" width="632" height="410" rx="14" fill="url(#scene)"/>
    <rect x="176" y="202" width="632" height="410" rx="14" fill="#08111c" opacity=".12"/>
    <circle cx="320" cy="336" r="78" fill="#ffb244"/>
    <rect x="246" y="390" width="178" height="128" rx="22" fill="#f15348"/>
    <rect x="464" y="268" width="130" height="250" rx="26" fill="#52cdb6"/>
    <rect x="620" y="224" width="144" height="294" rx="28" fill="#5a78e8"/>
    <rect x="214" y="548" width="550" height="22" rx="11" fill="#ffffff" opacity=".72"/>
    <text x="202" y="237" fill="#fff" font-size="16" font-family="Segoe UI, Arial, sans-serif" font-weight="600">LIVE SOURCE</text>
    <rect x="655" y="215" width="122" height="34" rx="17" fill="#08111c" opacity=".7"/>
    <circle cx="678" cy="232" r="5" fill="#6ff0a8"/>
    <text x="691" y="238" fill="#effff5" font-size="14" font-family="Segoe UI, Arial, sans-serif">Smart Auto</text>
  </g>

  <g>
    <rect x="862" y="180" width="424" height="454" rx="20" fill="#111a2b" stroke="#ffffff" stroke-opacity=".1"/>
    <text x="892" y="219" fill="#f7f9ff" font-size="18" font-family="Segoe UI, Arial, sans-serif" font-weight="600">Professional color, simple controls</text>
    <text x="892" y="246" fill="#91a0bc" font-size="14" font-family="Segoe UI, Arial, sans-serif">Preset</text>
    <rect x="892" y="260" width="364" height="44" rx="10" fill="#0a1120" stroke="#ffffff" stroke-opacity=".09"/>
    <text x="910" y="288" fill="#f5f7ff" font-size="15" font-family="Segoe UI, Arial, sans-serif">MasAri Dopamine</text>
    <path d="m1230 278 7 7 7-7" fill="none" stroke="#8d9bb6" stroke-width="2" stroke-linecap="round" stroke-linejoin="round"/>

    <g font-family="Segoe UI, Arial, sans-serif">
      <text x="892" y="340" fill="#dfe6f7" font-size="14">Instant Amount</text>
      <text x="1256" y="340" fill="#7de5ff" font-size="14" text-anchor="end">100%</text>
      <rect x="892" y="353" width="364" height="7" rx="3.5" fill="#243048"/>
      <rect x="892" y="353" width="226" height="7" rx="3.5" fill="url(#accent)"/>
      <circle cx="1118" cy="356.5" r="8" fill="#e9fbff" stroke="#55dfff" stroke-width="3"/>

      <text x="892" y="398" fill="#dfe6f7" font-size="14">Color Pop</text>
      <text x="1256" y="398" fill="#aab6ca" font-size="14" text-anchor="end">Balanced</text>
      <rect x="892" y="411" width="364" height="7" rx="3.5" fill="#243048"/>
      <rect x="892" y="411" width="208" height="7" rx="3.5" fill="url(#accent)"/>
      <circle cx="1100" cy="414.5" r="8" fill="#f7f5ff" stroke="#8b77ff" stroke-width="3"/>

      <text x="892" y="456" fill="#dfe6f7" font-size="14">Clean White</text>
      <text x="1256" y="456" fill="#aab6ca" font-size="14" text-anchor="end">Smart</text>
      <rect x="892" y="469" width="364" height="7" rx="3.5" fill="#243048"/>
      <rect x="892" y="469" width="176" height="7" rx="3.5" fill="url(#accent)"/>
      <circle cx="1068" cy="472.5" r="8" fill="#f7f5ff" stroke="#b462ff" stroke-width="3"/>

      <text x="892" y="514" fill="#dfe6f7" font-size="14">Visual Clarity</text>
      <text x="1256" y="514" fill="#aab6ca" font-size="14" text-anchor="end">Protected</text>
      <rect x="892" y="527" width="364" height="7" rx="3.5" fill="#243048"/>
      <rect x="892" y="527" width="194" height="7" rx="3.5" fill="url(#accent)"/>
      <circle cx="1086" cy="530.5" r="8" fill="#fff7fb" stroke="#e45ed0" stroke-width="3"/>
    </g>

    <rect x="892" y="568" width="176" height="38" rx="9" fill="#202a40"/>
    <text x="980" y="593" fill="#d9e1f2" font-size="14" font-family="Segoe UI, Arial, sans-serif" text-anchor="middle">Reset</text>
    <rect x="1080" y="568" width="176" height="38" rx="9" fill="url(#accent)"/>
    <text x="1168" y="593" fill="#fff" font-size="14" font-family="Segoe UI, Arial, sans-serif" font-weight="600" text-anchor="middle">Enhance</text>
  </g>

  <text x="720" y="715" fill="#a9b5cb" font-size="17" font-family="Segoe UI, Arial, sans-serif" text-anchor="middle">Scene-adaptive color · protected neutrals · controlled highlights · creator-friendly presets</text>
</svg>
